<svg xmlns="http://www.w3.org/2000/svg" version="1.1" xmlns:xlink="http://www.w3.org/1999/xlink" xmlns:svgjs="http://svgjs.dev/svgjs" viewBox="0 0 800 800" opacity="0.75" width="800" height="800"><g stroke-width="0.5" stroke="#8bcdd6ff" fill="none"><rect width="5" height="5" x="-2.5" y="-2.5" fill="#8bcdd6ff" stroke="none"></rect><rect width="5" height="5" x="41.94444444444444" y="-2.5" fill="#8bcdd6ff" stroke="none"></rect><rect width="5" height="5" x="86.38888888888889" y="-2.5" fill="#8bcdd6ff" stroke="none"></rect><rect width="5" height="5" x="130.83333333333331" y="-2.5" fill="#8bcdd6ff" stroke="none"></rect><rect width="5" height="5" x="175.27777777777777" y="-2.5" fill="#8bcdd6ff" stroke="none"></rect><rect width="5" height="5" x="219.72222222222223" y="-2.5" fill="#8bcdd6ff" stroke="none"></rect><rect width="5" height="5" x="264.1666666666667" y="-2.5" fill="#8bcdd6ff" stroke="none"></rect><rect width="5" height="5" x="308.61111111111114" y="-2.5" fill="#8bcdd6ff" stroke="none"></rect><rect width="5" height="5" x="353.0555555555556" y="-2.5" fill="#8bcdd6ff" stroke="none"></rect><rect width="5" height="5" x="397.50000000000006" y="-2.5" fill="#8bcdd6ff" stroke="none"></rect><rect width="5" height="5" x="441.9444444444445" y="-2.5" fill="#8bcdd6ff" stroke="none"></rect><rect width="5" height="5" x="486.38888888888897" y="-2.5" fill="#8bcdd6ff" stroke="none"></rect><rect width="5" height="5" x="530.8333333333334" y="-2.5" fill="#8bcdd6ff" stroke="none"></rect><rect width="5" height="5" x="575.2777777777778" y="-2.5" fill="#8bcdd6ff" stroke="none"></rect><rect width="5" height="5" x="619.7222222222223" y="-2.5" fill="#8bcdd6ff" stroke="none"></rect><rect width="5" height="5" x="664.1666666666667" y="-2.5" fill="#8bcdd6ff" stroke="none"></rect><rect width="5" height="5" x="708.6111111111112" y="-2.5" fill="#8bcdd6ff" stroke="none"></rect><rect width="5" height="5" x="753.0555555555557" y="-2.5" fill="#8bcdd6ff" stroke="none"></rect><rect width="5" height="5" x="797.5000000000001" y="-2.5" fill="#8bcdd6ff" stroke="none"></rect><rect width="5" height="5" x="-2.5" y="41.94444444444444" fill="#8bcdd6ff" stroke="none"></rect><rect width="5" height="5" x="41.94444444444444" y="41.94444444444444" fill="#8bcdd6ff" stroke="none"></rect><rect width="5" height="5" x="86.38888888888889" y="41.94444444444444" fill="#8bcdd6ff" stroke="none"></rect><rect width="5" height="5" x="130.83333333333331" y="41.94444444444444" fill="#8bcdd6ff" stroke="none"></rect><rect width="5" height="5" x="175.27777777777777" y="41.94444444444444" fill="#8bcdd6ff" stroke="none"></rect><rect width="5" height="5" x="219.72222222222223" y="41.94444444444444" fill="#8bcdd6ff" stroke="none"></rect><rect width="5" height="5" x="264.1666666666667" y="41.94444444444444" fill="#8bcdd6ff" stroke="none"></rect><rect width="5" height="5" x="308.61111111111114" y="41.94444444444444" fill="#8bcdd6ff" stroke="none"></rect><rect width="5" height="5" x="353.0555555555556" y="41.94444444444444" fill="#8bcdd6ff" stroke="none"></rect><rect width="5" height="5" x="397.50000000000006" y="41.94444444444444" fill="#8bcdd6ff" stroke="none"></rect><rect width="5" height="5" x="441.9444444444445" y="41.94444444444444" fill="#8bcdd6ff" stroke="none"></rect><rect width="5" height="5" x="486.38888888888897" y="41.94444444444444" fill="#8bcdd6ff" stroke="none"></rect><rect width="5" height="5" x="530.8333333333334" y="41.94444444444444" fill="#8bcdd6ff" stroke="none"></rect><rect width="5" height="5" x="575.2777777777778" y="41.94444444444444" fill="#8bcdd6ff" stroke="none"></rect><rect width="5" height="5" x="619.7222222222223" y="41.94444444444444" fill="#8bcdd6ff" stroke="none"></rect><rect width="5" height="5" x="664.1666666666667" y="41.94444444444444" fill="#8bcdd6ff" stroke="none"></rect><rect width="5" height="5" x="708.6111111111112" y="41.94444444444444" fill="#8bcdd6ff" stroke="none"></rect><rect width="5" height="5" x="753.0555555555557" y="41.94444444444444" fill="#8bcdd6ff" stroke="none"></rect><rect width="5" height="5" x="797.5000000000001" y="41.94444444444444" fill="#8bcdd6ff" stroke="none"></rect><rect width="5" height="5" x="-2.5" y="86.38888888888889" fill="#8bcdd6ff" stroke="none"></rect><rect width="5" height="5" x="41.94444444444444" y="86.38888888888889" fill="#8bcdd6ff" stroke="none"></rect><rect width="5" height="5" x="86.38888888888889" y="86.38888888888889" fill="#8bcdd6ff" stroke="none"></rect><rect width="5" height="5" x="130.83333333333331" y="86.38888888888889" fill="#8bcdd6ff" stroke="none"></rect><rect width="5" height="5" x="175.27777777777777" y="86.38888888888889" fill="#8bcdd6ff" stroke="none"></rect><rect width="5" height="5" x="219.72222222222223" y="86.38888888888889" fill="#8bcdd6ff" stroke="none"></rect><rect width="5" height="5" x="264.1666666666667" y="86.38888888888889" fill="#8bcdd6ff" stroke="none"></rect><rect width="5" height="5" x="308.61111111111114" y="86.38888888888889" fill="#8bcdd6ff" stroke="none"></rect><rect width="5" height="5" x="353.0555555555556" y="86.38888888888889" fill="#8bcdd6ff" stroke="none"></rect><rect width="5" height="5" x="397.50000000000006" y="86.38888888888889" fill="#8bcdd6ff" stroke="none"></rect><rect width="5" height="5" x="441.9444444444445" y="86.38888888888889" fill="#8bcdd6ff" stroke="none"></rect><rect width="5" height="5" x="486.38888888888897" y="86.38888888888889" fill="#8bcdd6ff" stroke="none"></rect><rect width="5" height="5" x="530.8333333333334" y="86.38888888888889" fill="#8bcdd6ff" stroke="none"></rect><rect width="5" height="5" x="575.2777777777778" y="86.38888888888889" fill="#8bcdd6ff" stroke="none"></rect><rect width="5" height="5" x="619.7222222222223" y="86.38888888888889" fill="#8bcdd6ff" stroke="none"></rect><rect width="5" height="5" x="664.1666666666667" y="86.38888888888889" fill="#8bcdd6ff" stroke="none"></rect><rect width="5" height="5" x="708.6111111111112" y="86.38888888888889" fill="#8bcdd6ff" stroke="none"></rect><rect width="5" height="5" x="753.0555555555557" y="86.38888888888889" fill="#8bcdd6ff" stroke="none"></rect><rect width="5" height="5" x="797.5000000000001" y="86.38888888888889" fill="#8bcdd6ff" stroke="none"></rect><rect width="5" height="5" x="-2.5" y="130.83333333333331" fill="#8bcdd6ff" stroke="none"></rect><rect width="5" height="5" x="41.94444444444444" y="130.83333333333331" fill="#8bcdd6ff" stroke="none"></rect><rect width="5" height="5" x="86.38888888888889" y="130.83333333333331" fill="#8bcdd6ff" stroke="none"></rect><rect width="5" height="5" x="130.83333333333331" y="130.83333333333331" fill="#8bcdd6ff" stroke="none"></rect><rect width="5" height="5" x="175.27777777777777" y="130.83333333333331" fill="#8bcdd6ff" stroke="none"></rect><rect width="5" height="5" x="219.72222222222223" y="130.83333333333331" fill="#8bcdd6ff" stroke="none"></rect><rect width="5" height="5" x="264.1666666666667" y="130.83333333333331" fill="#8bcdd6ff" stroke="none"></rect><rect width="5" height="5" x="308.61111111111114" y="130.83333333333331" fill="#8bcdd6ff" stroke="none"></rect><rect width="5" height="5" x="353.0555555555556" y="130.83333333333331" fill="#8bcdd6ff" stroke="none"></rect><rect width="5" height="5" x="397.50000000000006" y="130.83333333333331" fill="#8bcdd6ff" stroke="none"></rect><rect width="5" height="5" x="441.9444444444445" y="130.83333333333331" fill="#8bcdd6ff" stroke="none"></rect><rect width="5" height="5" x="486.38888888888897" y="130.83333333333331" fill="#8bcdd6ff" stroke="none"></rect><rect width="5" height="5" x="530.8333333333334" y="130.83333333333331" fill="#8bcdd6ff" stroke="none"></rect><rect width="5" height="5" x="575.2777777777778" y="130.83333333333331" fill="#8bcdd6ff" stroke="none"></rect><rect width="5" height="5" x="619.7222222222223" y="130.83333333333331" fill="#8bcdd6ff" stroke="none"></rect><rect width="5" height="5" x="664.1666666666667" y="130.83333333333331" fill="#8bcdd6ff" stroke="none"></rect><rect width="5" height="5" x="708.6111111111112" y="130.83333333333331" fill="#8bcdd6ff" stroke="none"></rect><rect width="5" height="5" x="753.0555555555557" y="130.83333333333331" fill="#8bcdd6ff" stroke="none"></rect><rect width="5" height="5" x="797.5000000000001" y="130.83333333333331" fill="#8bcdd6ff" stroke="none"></rect><rect width="5" height="5" x="-2.5" y="175.27777777777777" fill="#8bcdd6ff" stroke="none"></rect><rect width="5" height="5" x="41.94444444444444" y="175.27777777777777" fill="#8bcdd6ff" stroke="none"></rect><rect width="5" height="5" x="86.38888888888889" y="175.27777777777777" fill="#8bcdd6ff" stroke="none"></rect><rect width="5" height="5" x="130.83333333333331" y="175.27777777777777" fill="#8bcdd6ff" stroke="none"></rect><rect width="5" height="5" x="175.27777777777777" y="175.27777777777777" fill="#8bcdd6ff" stroke="none"></rect><rect width="5" height="5" x="219.72222222222223" y="175.27777777777777" fill="#8bcdd6ff" stroke="none"></rect><rect width="5" height="5" x="264.1666666666667" y="175.27777777777777" fill="#8bcdd6ff" stroke="none"></rect><rect width="5" height="5" x="308.61111111111114" y="175.27777777777777" fill="#8bcdd6ff" stroke="none"></rect><rect width="5" height="5" x="353.0555555555556" y="175.27777777777777" fill="#8bcdd6ff" stroke="none"></rect><rect width="5" height="5" x="397.50000000000006" y="175.27777777777777" fill="#8bcdd6ff" stroke="none"></rect><rect width="5" height="5" x="441.9444444444445" y="175.27777777777777" fill="#8bcdd6ff" stroke="none"></rect><rect width="5" height="5" x="486.38888888888897" y="175.27777777777777" fill="#8bcdd6ff" stroke="none"></rect><rect width="5" height="5" x="530.8333333333334" y="175.27777777777777" fill="#8bcdd6ff" stroke="none"></rect><rect width="5" height="5" x="575.2777777777778" y="175.27777777777777" fill="#8bcdd6ff" stroke="none"></rect><rect width="5" height="5" x="619.7222222222223" y="175.27777777777777" fill="#8bcdd6ff" stroke="none"></rect><rect width="5" height="5" x="664.1666666666667" y="175.27777777777777" fill="#8bcdd6ff" stroke="none"></rect><rect width="5" height="5" x="708.6111111111112" y="175.27777777777777" fill="#8bcdd6ff" stroke="none"></rect><rect width="5" height="5" x="753.0555555555557" y="175.27777777777777" fill="#8bcdd6ff" stroke="none"></rect><rect width="5" height="5" x="797.5000000000001" y="175.27777777777777" fill="#8bcdd6ff" stroke="none"></rect><rect width="5" height="5" x="-2.5" y="219.72222222222223" fill="#8bcdd6ff" stroke="none"></rect><rect width="5" height="5" x="41.94444444444444" y="219.72222222222223" fill="#8bcdd6ff" stroke="none"></rect><rect width="5" height="5" x="86.38888888888889" y="219.72222222222223" fill="#8bcdd6ff" stroke="none"></rect><rect width="5" height="5" x="130.83333333333331" y="219.72222222222223" fill="#8bcdd6ff" stroke="none"></rect><rect width="5" height="5" x="175.27777777777777" y="219.72222222222223" fill="#8bcdd6ff" stroke="none"></rect><rect width="5" height="5" x="219.72222222222223" y="219.72222222222223" fill="#8bcdd6ff" stroke="none"></rect><rect width="5" height="5" x="264.1666666666667" y="219.72222222222223" fill="#8bcdd6ff" stroke="none"></rect><rect width="5" height="5" x="308.61111111111114" y="219.72222222222223" fill="#8bcdd6ff" stroke="none"></rect><rect width="5" height="5" x="353.0555555555556" y="219.72222222222223" fill="#8bcdd6ff" stroke="none"></rect><rect width="5" height="5" x="397.50000000000006" y="219.72222222222223" fill="#8bcdd6ff" stroke="none"></rect><rect width="5" height="5" x="441.9444444444445" y="219.72222222222223" fill="#8bcdd6ff" stroke="none"></rect><rect width="5" height="5" x="486.38888888888897" y="219.72222222222223" fill="#8bcdd6ff" stroke="none"></rect><rect width="5" height="5" x="530.8333333333334" y="219.72222222222223" fill="#8bcdd6ff" stroke="none"></rect><rect width="5" height="5" x="575.2777777777778" y="219.72222222222223" fill="#8bcdd6ff" stroke="none"></rect><rect width="5" height="5" x="619.7222222222223" y="219.72222222222223" fill="#8bcdd6ff" stroke="none"></rect><rect width="5" height="5" x="664.1666666666667" y="219.72222222222223" fill="#8bcdd6ff" stroke="none"></rect><rect width="5" height="5" x="708.6111111111112" y="219.72222222222223" fill="#8bcdd6ff" stroke="none"></rect><rect width="5" height="5" x="753.0555555555557" y="219.72222222222223" fill="#8bcdd6ff" stroke="none"></rect><rect width="5" height="5" x="797.5000000000001" y="219.72222222222223" fill="#8bcdd6ff" stroke="none"></rect><rect width="5" height="5" x="-2.5" y="264.1666666666667" fill="#8bcdd6ff" stroke="none"></rect><rect width="5" height="5" x="41.94444444444444" y="264.1666666666667" fill="#8bcdd6ff" stroke="none"></rect><rect width="5" height="5" x="86.38888888888889" y="264.1666666666667" fill="#8bcdd6ff" stroke="none"></rect><rect width="5" height="5" x="130.83333333333331" y="264.1666666666667" fill="#8bcdd6ff" stroke="none"></rect><rect width="5" height="5" x="175.27777777777777" y="264.1666666666667" fill="#8bcdd6ff" stroke="none"></rect><rect width="5" height="5" x="219.72222222222223" y="264.1666666666667" fill="#8bcdd6ff" stroke="none"></rect><rect width="5" height="5" x="264.1666666666667" y="264.1666666666667" fill="#8bcdd6ff" stroke="none"></rect><rect width="5" height="5" x="308.61111111111114" y="264.1666666666667" fill="#8bcdd6ff" stroke="none"></rect><rect width="5" height="5" x="353.0555555555556" y="264.1666666666667" fill="#8bcdd6ff" stroke="none"></rect><rect width="5" height="5" x="397.50000000000006" y="264.1666666666667" fill="#8bcdd6ff" stroke="none"></rect><rect width="5" height="5" x="441.9444444444445" y="264.1666666666667" fill="#8bcdd6ff" stroke="none"></rect><rect width="5" height="5" x="486.38888888888897" y="264.1666666666667" fill="#8bcdd6ff" stroke="none"></rect><rect width="5" height="5" x="530.8333333333334" y="264.1666666666667" fill="#8bcdd6ff" stroke="none"></rect><rect width="5" height="5" x="575.2777777777778" y="264.1666666666667" fill="#8bcdd6ff" stroke="none"></rect><rect width="5" height="5" x="619.7222222222223" y="264.1666666666667" fill="#8bcdd6ff" stroke="none"></rect><rect width="5" height="5" x="664.1666666666667" y="264.1666666666667" fill="#8bcdd6ff" stroke="none"></rect><rect width="5" height="5" x="708.6111111111112" y="264.1666666666667" fill="#8bcdd6ff" stroke="none"></rect><rect width="5" height="5" x="753.0555555555557" y="264.1666666666667" fill="#8bcdd6ff" stroke="none"></rect><rect width="5" height="5" x="797.5000000000001" y="264.1666666666667" fill="#8bcdd6ff" stroke="none"></rect><rect width="5" height="5" x="-2.5" y="308.61111111111114" fill="#8bcdd6ff" stroke="none"></rect><rect width="5" height="5" x="41.94444444444444" y="308.61111111111114" fill="#8bcdd6ff" stroke="none"></rect><rect width="5" height="5" x="86.38888888888889" y="308.61111111111114" fill="#8bcdd6ff" stroke="none"></rect><rect width="5" height="5" x="130.83333333333331" y="308.61111111111114" fill="#8bcdd6ff" stroke="none"></rect><rect width="5" height="5" x="175.27777777777777" y="308.61111111111114" fill="#8bcdd6ff" stroke="none"></rect><rect width="5" height="5" x="219.72222222222223" y="308.61111111111114" fill="#8bcdd6ff" stroke="none"></rect><rect width="5" height="5" x="264.1666666666667" y="308.61111111111114" fill="#8bcdd6ff" stroke="none"></rect><rect width="5" height="5" x="308.61111111111114" y="308.61111111111114" fill="#8bcdd6ff" stroke="none"></rect><rect width="5" height="5" x="353.0555555555556" y="308.61111111111114" fill="#8bcdd6ff" stroke="none"></rect><rect width="5" height="5" x="397.50000000000006" y="308.61111111111114" fill="#8bcdd6ff" stroke="none"></rect><rect width="5" height="5" x="441.9444444444445" y="308.61111111111114" fill="#8bcdd6ff" stroke="none"></rect><rect width="5" height="5" x="486.38888888888897" y="308.61111111111114" fill="#8bcdd6ff" stroke="none"></rect><rect width="5" height="5" x="530.8333333333334" y="308.61111111111114" fill="#8bcdd6ff" stroke="none"></rect><rect width="5" height="5" x="575.2777777777778" y="308.61111111111114" fill="#8bcdd6ff" stroke="none"></rect><rect width="5" height="5" x="619.7222222222223" y="308.61111111111114" fill="#8bcdd6ff" stroke="none"></rect><rect width="5" height="5" x="664.1666666666667" y="308.61111111111114" fill="#8bcdd6ff" stroke="none"></rect><rect width="5" height="5" x="708.6111111111112" y="308.61111111111114" fill="#8bcdd6ff" stroke="none"></rect><rect width="5" height="5" x="753.0555555555557" y="308.61111111111114" fill="#8bcdd6ff" stroke="none"></rect><rect width="5" height="5" x="797.5000000000001" y="308.61111111111114" fill="#8bcdd6ff" stroke="none"></rect><rect width="5" height="5" x="-2.5" y="353.0555555555556" fill="#8bcdd6ff" stroke="none"></rect><rect width="5" height="5" x="41.94444444444444" y="353.0555555555556" fill="#8bcdd6ff" stroke="none"></rect><rect width="5" height="5" x="86.38888888888889" y="353.0555555555556" fill="#8bcdd6ff" stroke="none"></rect><rect width="5" height="5" x="130.83333333333331" y="353.0555555555556" fill="#8bcdd6ff" stroke="none"></rect><rect width="5" height="5" x="175.27777777777777" y="353.0555555555556" fill="#8bcdd6ff" stroke="none"></rect><rect width="5" height="5" x="219.72222222222223" y="353.0555555555556" fill="#8bcdd6ff" stroke="none"></rect><rect width="5" height="5" x="264.1666666666667" y="353.0555555555556" fill="#8bcdd6ff" stroke="none"></rect><rect width="5" height="5" x="308.61111111111114" y="353.0555555555556" fill="#8bcdd6ff" stroke="none"></rect><rect width="5" height="5" x="353.0555555555556" y="353.0555555555556" fill="#8bcdd6ff" stroke="none"></rect><rect width="5" height="5" x="397.50000000000006" y="353.0555555555556" fill="#8bcdd6ff" stroke="none"></rect><rect width="5" height="5" x="441.9444444444445" y="353.0555555555556" fill="#8bcdd6ff" stroke="none"></rect><rect width="5" height="5" x="486.38888888888897" y="353.0555555555556" fill="#8bcdd6ff" stroke="none"></rect><rect width="5" height="5" x="530.8333333333334" y="353.0555555555556" fill="#8bcdd6ff" stroke="none"></rect><rect width="5" height="5" x="575.2777777777778" y="353.0555555555556" fill="#8bcdd6ff" stroke="none"></rect><rect width="5" height="5" x="619.7222222222223" y="353.0555555555556" fill="#8bcdd6ff" stroke="none"></rect><rect width="5" height="5" x="664.1666666666667" y="353.0555555555556" fill="#8bcdd6ff" stroke="none"></rect><rect width="5" height="5" x="708.6111111111112" y="353.0555555555556" fill="#8bcdd6ff" stroke="none"></rect><rect width="5" height="5" x="753.0555555555557" y="353.0555555555556" fill="#8bcdd6ff" stroke="none"></rect><rect width="5" height="5" x="797.5000000000001" y="353.0555555555556" fill="#8bcdd6ff" stroke="none"></rect><rect width="5" height="5" x="-2.5" y="397.50000000000006" fill="#8bcdd6ff" stroke="none"></rect><rect width="5" height="5" x="41.94444444444444" y="397.50000000000006" fill="#8bcdd6ff" stroke="none"></rect><rect width="5" height="5" x="86.38888888888889" y="397.50000000000006" fill="#8bcdd6ff" stroke="none"></rect><rect width="5" height="5" x="130.83333333333331" y="397.50000000000006" fill="#8bcdd6ff" stroke="none"></rect><rect width="5" height="5" x="175.27777777777777" y="397.50000000000006" fill="#8bcdd6ff" stroke="none"></rect><rect width="5" height="5" x="219.72222222222223" y="397.50000000000006" fill="#8bcdd6ff" stroke="none"></rect><rect width="5" height="5" x="264.1666666666667" y="397.50000000000006" fill="#8bcdd6ff" stroke="none"></rect><rect width="5" height="5" x="308.61111111111114" y="397.50000000000006" fill="#8bcdd6ff" stroke="none"></rect><rect width="5" height="5" x="353.0555555555556" y="397.50000000000006" fill="#8bcdd6ff" stroke="none"></rect><rect width="5" height="5" x="397.50000000000006" y="397.50000000000006" fill="#8bcdd6ff" stroke="none"></rect><rect width="5" height="5" x="441.9444444444445" y="397.50000000000006" fill="#8bcdd6ff" stroke="none"></rect><rect width="5" height="5" x="486.38888888888897" y="397.50000000000006" fill="#8bcdd6ff" stroke="none"></rect><rect width="5" height="5" x="530.8333333333334" y="397.50000000000006" fill="#8bcdd6ff" stroke="none"></rect><rect width="5" height="5" x="575.2777777777778" y="397.50000000000006" fill="#8bcdd6ff" stroke="none"></rect><rect width="5" height="5" x="619.7222222222223" y="397.50000000000006" fill="#8bcdd6ff" stroke="none"></rect><rect width="5" height="5" x="664.1666666666667" y="397.50000000000006" fill="#8bcdd6ff" stroke="none"></rect><rect width="5" height="5" x="708.6111111111112" y="397.50000000000006" fill="#8bcdd6ff" stroke="none"></rect><rect width="5" height="5" x="753.0555555555557" y="397.50000000000006" fill="#8bcdd6ff" stroke="none"></rect><rect width="5" height="5" x="797.5000000000001" y="397.50000000000006" fill="#8bcdd6ff" stroke="none"></rect><rect width="5" height="5" x="-2.5" y="441.9444444444445" fill="#8bcdd6ff" stroke="none"></rect><rect width="5" height="5" x="41.94444444444444" y="441.9444444444445" fill="#8bcdd6ff" stroke="none"></rect><rect width="5" height="5" x="86.38888888888889" y="441.9444444444445" fill="#8bcdd6ff" stroke="none"></rect><rect width="5" height="5" x="130.83333333333331" y="441.9444444444445" fill="#8bcdd6ff" stroke="none"></rect><rect width="5" height="5" x="175.27777777777777" y="441.9444444444445" fill="#8bcdd6ff" stroke="none"></rect><rect width="5" height="5" x="219.72222222222223" y="441.9444444444445" fill="#8bcdd6ff" stroke="none"></rect><rect width="5" height="5" x="264.1666666666667" y="441.9444444444445" fill="#8bcdd6ff" stroke="none"></rect><rect width="5" height="5" x="308.61111111111114" y="441.9444444444445" fill="#8bcdd6ff" stroke="none"></rect><rect width="5" height="5" x="353.0555555555556" y="441.9444444444445" fill="#8bcdd6ff" stroke="none"></rect><rect width="5" height="5" x="397.50000000000006" y="441.9444444444445" fill="#8bcdd6ff" stroke="none"></rect><rect width="5" height="5" x="441.9444444444445" y="441.9444444444445" fill="#8bcdd6ff" stroke="none"></rect><rect width="5" height="5" x="486.38888888888897" y="441.9444444444445" fill="#8bcdd6ff" stroke="none"></rect><rect width="5" height="5" x="530.8333333333334" y="441.9444444444445" fill="#8bcdd6ff" stroke="none"></rect><rect width="5" height="5" x="575.2777777777778" y="441.9444444444445" fill="#8bcdd6ff" stroke="none"></rect><rect width="5" height="5" x="619.7222222222223" y="441.9444444444445" fill="#8bcdd6ff" stroke="none"></rect><rect width="5" height="5" x="664.1666666666667" y="441.9444444444445" fill="#8bcdd6ff" stroke="none"></rect><rect width="5" height="5" x="708.6111111111112" y="441.9444444444445" fill="#8bcdd6ff" stroke="none"></rect><rect width="5" height="5" x="753.0555555555557" y="441.9444444444445" fill="#8bcdd6ff" stroke="none"></rect><rect width="5" height="5" x="797.5000000000001" y="441.9444444444445" fill="#8bcdd6ff" stroke="none"></rect><rect width="5" height="5" x="-2.5" y="486.38888888888897" fill="#8bcdd6ff" stroke="none"></rect><rect width="5" height="5" x="41.94444444444444" y="486.38888888888897" fill="#8bcdd6ff" stroke="none"></rect><rect width="5" height="5" x="86.38888888888889" y="486.38888888888897" fill="#8bcdd6ff" stroke="none"></rect><rect width="5" height="5" x="130.83333333333331" y="486.38888888888897" fill="#8bcdd6ff" stroke="none"></rect><rect width="5" height="5" x="175.27777777777777" y="486.38888888888897" fill="#8bcdd6ff" stroke="none"></rect><rect width="5" height="5" x="219.72222222222223" y="486.38888888888897" fill="#8bcdd6ff" stroke="none"></rect><rect width="5" height="5" x="264.1666666666667" y="486.38888888888897" fill="#8bcdd6ff" stroke="none"></rect><rect width="5" height="5" x="308.61111111111114" y="486.38888888888897" fill="#8bcdd6ff" stroke="none"></rect><rect width="5" height="5" x="353.0555555555556" y="486.38888888888897" fill="#8bcdd6ff" stroke="none"></rect><rect width="5" height="5" x="397.50000000000006" y="486.38888888888897" fill="#8bcdd6ff" stroke="none"></rect><rect width="5" height="5" x="441.9444444444445" y="486.38888888888897" fill="#8bcdd6ff" stroke="none"></rect><rect width="5" height="5" x="486.38888888888897" y="486.38888888888897" fill="#8bcdd6ff" stroke="none"></rect><rect width="5" height="5" x="530.8333333333334" y="486.38888888888897" fill="#8bcdd6ff" stroke="none"></rect><rect width="5" height="5" x="575.2777777777778" y="486.38888888888897" fill="#8bcdd6ff" stroke="none"></rect><rect width="5" height="5" x="619.7222222222223" y="486.38888888888897" fill="#8bcdd6ff" stroke="none"></rect><rect width="5" height="5" x="664.1666666666667" y="486.38888888888897" fill="#8bcdd6ff" stroke="none"></rect><rect width="5" height="5" x="708.6111111111112" y="486.38888888888897" fill="#8bcdd6ff" stroke="none"></rect><rect width="5" height="5" x="753.0555555555557" y="486.38888888888897" fill="#8bcdd6ff" stroke="none"></rect><rect width="5" height="5" x="797.5000000000001" y="486.38888888888897" fill="#8bcdd6ff" stroke="none"></rect><rect width="5" height="5" x="-2.5" y="530.8333333333334" fill="#8bcdd6ff" stroke="none"></rect><rect width="5" height="5" x="41.94444444444444" y="530.8333333333334" fill="#8bcdd6ff" stroke="none"></rect><rect width="5" height="5" x="86.38888888888889" y="530.8333333333334" fill="#8bcdd6ff" stroke="none"></rect><rect width="5" height="5" x="130.83333333333331" y="530.8333333333334" fill="#8bcdd6ff" stroke="none"></rect><rect width="5" height="5" x="175.27777777777777" y="530.8333333333334" fill="#8bcdd6ff" stroke="none"></rect><rect width="5" height="5" x="219.72222222222223" y="530.8333333333334" fill="#8bcdd6ff" stroke="none"></rect><rect width="5" height="5" x="264.1666666666667" y="530.8333333333334" fill="#8bcdd6ff" stroke="none"></rect><rect width="5" height="5" x="308.61111111111114" y="530.8333333333334" fill="#8bcdd6ff" stroke="none"></rect><rect width="5" height="5" x="353.0555555555556" y="530.8333333333334" fill="#8bcdd6ff" stroke="none"></rect><rect width="5" height="5" x="397.50000000000006" y="530.8333333333334" fill="#8bcdd6ff" stroke="none"></rect><rect width="5" height="5" x="441.9444444444445" y="530.8333333333334" fill="#8bcdd6ff" stroke="none"></rect><rect width="5" height="5" x="486.38888888888897" y="530.8333333333334" fill="#8bcdd6ff" stroke="none"></rect><rect width="5" height="5" x="530.8333333333334" y="530.8333333333334" fill="#8bcdd6ff" stroke="none"></rect><rect width="5" height="5" x="575.2777777777778" y="530.8333333333334" fill="#8bcdd6ff" stroke="none"></rect><rect width="5" height="5" x="619.7222222222223" y="530.8333333333334" fill="#8bcdd6ff" stroke="none"></rect><rect width="5" height="5" x="664.1666666666667" y="530.8333333333334" fill="#8bcdd6ff" stroke="none"></rect><rect width="5" height="5" x="708.6111111111112" y="530.8333333333334" fill="#8bcdd6ff" stroke="none"></rect><rect width="5" height="5" x="753.0555555555557" y="530.8333333333334" fill="#8bcdd6ff" stroke="none"></rect><rect width="5" height="5" x="797.5000000000001" y="530.8333333333334" fill="#8bcdd6ff" stroke="none"></rect><rect width="5" height="5" x="-2.5" y="575.2777777777778" fill="#8bcdd6ff" stroke="none"></rect><rect width="5" height="5" x="41.94444444444444" y="575.2777777777778" fill="#8bcdd6ff" stroke="none"></rect><rect width="5" height="5" x="86.38888888888889" y="575.2777777777778" fill="#8bcdd6ff" stroke="none"></rect><rect width="5" height="5" x="130.83333333333331" y="575.2777777777778" fill="#8bcdd6ff" stroke="none"></rect><rect width="5" height="5" x="175.27777777777777" y="575.2777777777778" fill="#8bcdd6ff" stroke="none"></rect><rect width="5" height="5" x="219.72222222222223" y="575.2777777777778" fill="#8bcdd6ff" stroke="none"></rect><rect width="5" height="5" x="264.1666666666667" y="575.2777777777778" fill="#8bcdd6ff" stroke="none"></rect><rect width="5" height="5" x="308.61111111111114" y="575.2777777777778" fill="#8bcdd6ff" stroke="none"></rect><rect width="5" height="5" x="353.0555555555556" y="575.2777777777778" fill="#8bcdd6ff" stroke="none"></rect><rect width="5" height="5" x="397.50000000000006" y="575.2777777777778" fill="#8bcdd6ff" stroke="none"></rect><rect width="5" height="5" x="441.9444444444445" y="575.2777777777778" fill="#8bcdd6ff" stroke="none"></rect><rect width="5" height="5" x="486.38888888888897" y="575.2777777777778" fill="#8bcdd6ff" stroke="none"></rect><rect width="5" height="5" x="530.8333333333334" y="575.2777777777778" fill="#8bcdd6ff" stroke="none"></rect><rect width="5" height="5" x="575.2777777777778" y="575.2777777777778" fill="#8bcdd6ff" stroke="none"></rect><rect width="5" height="5" x="619.7222222222223" y="575.2777777777778" fill="#8bcdd6ff" stroke="none"></rect><rect width="5" height="5" x="664.1666666666667" y="575.2777777777778" fill="#8bcdd6ff" stroke="none"></rect><rect width="5" height="5" x="708.6111111111112" y="575.2777777777778" fill="#8bcdd6ff" stroke="none"></rect><rect width="5" height="5" x="753.0555555555557" y="575.2777777777778" fill="#8bcdd6ff" stroke="none"></rect><rect width="5" height="5" x="797.5000000000001" y="575.2777777777778" fill="#8bcdd6ff" stroke="none"></rect><rect width="5" height="5" x="-2.5" y="619.7222222222223" fill="#8bcdd6ff" stroke="none"></rect><rect width="5" height="5" x="41.94444444444444" y="619.7222222222223" fill="#8bcdd6ff" stroke="none"></rect><rect width="5" height="5" x="86.38888888888889" y="619.7222222222223" fill="#8bcdd6ff" stroke="none"></rect><rect width="5" height="5" x="130.83333333333331" y="619.7222222222223" fill="#8bcdd6ff" stroke="none"></rect><rect width="5" height="5" x="175.27777777777777" y="619.7222222222223" fill="#8bcdd6ff" stroke="none"></rect><rect width="5" height="5" x="219.72222222222223" y="619.7222222222223" fill="#8bcdd6ff" stroke="none"></rect><rect width="5" height="5" x="264.1666666666667" y="619.7222222222223" fill="#8bcdd6ff" stroke="none"></rect><rect width="5" height="5" x="308.61111111111114" y="619.7222222222223" fill="#8bcdd6ff" stroke="none"></rect><rect width="5" height="5" x="353.0555555555556" y="619.7222222222223" fill="#8bcdd6ff" stroke="none"></rect><rect width="5" height="5" x="397.50000000000006" y="619.7222222222223" fill="#8bcdd6ff" stroke="none"></rect><rect width="5" height="5" x="441.9444444444445" y="619.7222222222223" fill="#8bcdd6ff" stroke="none"></rect><rect width="5" height="5" x="486.38888888888897" y="619.7222222222223" fill="#8bcdd6ff" stroke="none"></rect><rect width="5" height="5" x="530.8333333333334" y="619.7222222222223" fill="#8bcdd6ff" stroke="none"></rect><rect width="5" height="5" x="575.2777777777778" y="619.7222222222223" fill="#8bcdd6ff" stroke="none"></rect><rect width="5" height="5" x="619.7222222222223" y="619.7222222222223" fill="#8bcdd6ff" stroke="none"></rect><rect width="5" height="5" x="664.1666666666667" y="619.7222222222223" fill="#8bcdd6ff" stroke="none"></rect><rect width="5" height="5" x="708.6111111111112" y="619.7222222222223" fill="#8bcdd6ff" stroke="none"></rect><rect width="5" height="5" x="753.0555555555557" y="619.7222222222223" fill="#8bcdd6ff" stroke="none"></rect><rect width="5" height="5" x="797.5000000000001" y="619.7222222222223" fill="#8bcdd6ff" stroke="none"></rect><rect width="5" height="5" x="-2.5" y="664.1666666666667" fill="#8bcdd6ff" stroke="none"></rect><rect width="5" height="5" x="41.94444444444444" y="664.1666666666667" fill="#8bcdd6ff" stroke="none"></rect><rect width="5" height="5" x="86.38888888888889" y="664.1666666666667" fill="#8bcdd6ff" stroke="none"></rect><rect width="5" height="5" x="130.83333333333331" y="664.1666666666667" fill="#8bcdd6ff" stroke="none"></rect><rect width="5" height="5" x="175.27777777777777" y="664.1666666666667" fill="#8bcdd6ff" stroke="none"></rect><rect width="5" height="5" x="219.72222222222223" y="664.1666666666667" fill="#8bcdd6ff" stroke="none"></rect><rect width="5" height="5" x="264.1666666666667" y="664.1666666666667" fill="#8bcdd6ff" stroke="none"></rect><rect width="5" height="5" x="308.61111111111114" y="664.1666666666667" fill="#8bcdd6ff" stroke="none"></rect><rect width="5" height="5" x="353.0555555555556" y="664.1666666666667" fill="#8bcdd6ff" stroke="none"></rect><rect width="5" height="5" x="397.50000000000006" y="664.1666666666667" fill="#8bcdd6ff" stroke="none"></rect><rect width="5" height="5" x="441.9444444444445" y="664.1666666666667" fill="#8bcdd6ff" stroke="none"></rect><rect width="5" height="5" x="486.38888888888897" y="664.1666666666667" fill="#8bcdd6ff" stroke="none"></rect><rect width="5" height="5" x="530.8333333333334" y="664.1666666666667" fill="#8bcdd6ff" stroke="none"></rect><rect width="5" height="5" x="575.2777777777778" y="664.1666666666667" fill="#8bcdd6ff" stroke="none"></rect><rect width="5" height="5" x="619.7222222222223" y="664.1666666666667" fill="#8bcdd6ff" stroke="none"></rect><rect width="5" height="5" x="664.1666666666667" y="664.1666666666667" fill="#8bcdd6ff" stroke="none"></rect><rect width="5" height="5" x="708.6111111111112" y="664.1666666666667" fill="#8bcdd6ff" stroke="none"></rect><rect width="5" height="5" x="753.0555555555557" y="664.1666666666667" fill="#8bcdd6ff" stroke="none"></rect><rect width="5" height="5" x="797.5000000000001" y="664.1666666666667" fill="#8bcdd6ff" stroke="none"></rect><rect width="5" height="5" x="-2.5" y="708.6111111111112" fill="#8bcdd6ff" stroke="none"></rect><rect width="5" height="5" x="41.94444444444444" y="708.6111111111112" fill="#8bcdd6ff" stroke="none"></rect><rect width="5" height="5" x="86.38888888888889" y="708.6111111111112" fill="#8bcdd6ff" stroke="none"></rect><rect width="5" height="5" x="130.83333333333331" y="708.6111111111112" fill="#8bcdd6ff" stroke="none"></rect><rect width="5" height="5" x="175.27777777777777" y="708.6111111111112" fill="#8bcdd6ff" stroke="none"></rect><rect width="5" height="5" x="219.72222222222223" y="708.6111111111112" fill="#8bcdd6ff" stroke="none"></rect><rect width="5" height="5" x="264.1666666666667" y="708.6111111111112" fill="#8bcdd6ff" stroke="none"></rect><rect width="5" height="5" x="308.61111111111114" y="708.6111111111112" fill="#8bcdd6ff" stroke="none"></rect><rect width="5" height="5" x="353.0555555555556" y="708.6111111111112" fill="#8bcdd6ff" stroke="none"></rect><rect width="5" height="5" x="397.50000000000006" y="708.6111111111112" fill="#8bcdd6ff" stroke="none"></rect><rect width="5" height="5" x="441.9444444444445" y="708.6111111111112" fill="#8bcdd6ff" stroke="none"></rect><rect width="5" height="5" x="486.38888888888897" y="708.6111111111112" fill="#8bcdd6ff" stroke="none"></rect><rect width="5" height="5" x="530.8333333333334" y="708.6111111111112" fill="#8bcdd6ff" stroke="none"></rect><rect width="5" height="5" x="575.2777777777778" y="708.6111111111112" fill="#8bcdd6ff" stroke="none"></rect><rect width="5" height="5" x="619.7222222222223" y="708.6111111111112" fill="#8bcdd6ff" stroke="none"></rect><rect width="5" height="5" x="664.1666666666667" y="708.6111111111112" fill="#8bcdd6ff" stroke="none"></rect><rect width="5" height="5" x="708.6111111111112" y="708.6111111111112" fill="#8bcdd6ff" stroke="none"></rect><rect width="5" height="5" x="753.0555555555557" y="708.6111111111112" fill="#8bcdd6ff" stroke="none"></rect><rect width="5" height="5" x="797.5000000000001" y="708.6111111111112" fill="#8bcdd6ff" stroke="none"></rect><rect width="5" height="5" x="-2.5" y="753.0555555555557" fill="#8bcdd6ff" stroke="none"></rect><rect width="5" height="5" x="41.94444444444444" y="753.0555555555557" fill="#8bcdd6ff" stroke="none"></rect><rect width="5" height="5" x="86.38888888888889" y="753.0555555555557" fill="#8bcdd6ff" stroke="none"></rect><rect width="5" height="5" x="130.83333333333331" y="753.0555555555557" fill="#8bcdd6ff" stroke="none"></rect><rect width="5" height="5" x="175.27777777777777" y="753.0555555555557" fill="#8bcdd6ff" stroke="none"></rect><rect width="5" height="5" x="219.72222222222223" y="753.0555555555557" fill="#8bcdd6ff" stroke="none"></rect><rect width="5" height="5" x="264.1666666666667" y="753.0555555555557" fill="#8bcdd6ff" stroke="none"></rect><rect width="5" height="5" x="308.61111111111114" y="753.0555555555557" fill="#8bcdd6ff" stroke="none"></rect><rect width="5" height="5" x="353.0555555555556" y="753.0555555555557" fill="#8bcdd6ff" stroke="none"></rect><rect width="5" height="5" x="397.50000000000006" y="753.0555555555557" fill="#8bcdd6ff" stroke="none"></rect><rect width="5" height="5" x="441.9444444444445" y="753.0555555555557" fill="#8bcdd6ff" stroke="none"></rect><rect width="5" height="5" x="486.38888888888897" y="753.0555555555557" fill="#8bcdd6ff" stroke="none"></rect><rect width="5" height="5" x="530.8333333333334" y="753.0555555555557" fill="#8bcdd6ff" stroke="none"></rect><rect width="5" height="5" x="575.2777777777778" y="753.0555555555557" fill="#8bcdd6ff" stroke="none"></rect><rect width="5" height="5" x="619.7222222222223" y="753.0555555555557" fill="#8bcdd6ff" stroke="none"></rect><rect width="5" height="5" x="664.1666666666667" y="753.0555555555557" fill="#8bcdd6ff" stroke="none"></rect><rect width="5" height="5" x="708.6111111111112" y="753.0555555555557" fill="#8bcdd6ff" stroke="none"></rect><rect width="5" height="5" x="753.0555555555557" y="753.0555555555557" fill="#8bcdd6ff" stroke="none"></rect><rect width="5" height="5" x="797.5000000000001" y="753.0555555555557" fill="#8bcdd6ff" stroke="none"></rect><rect width="5" height="5" x="-2.5" y="797.5000000000001" fill="#8bcdd6ff" stroke="none"></rect><rect width="5" height="5" x="41.94444444444444" y="797.5000000000001" fill="#8bcdd6ff" stroke="none"></rect><rect width="5" height="5" x="86.38888888888889" y="797.5000000000001" fill="#8bcdd6ff" stroke="none"></rect><rect width="5" height="5" x="130.83333333333331" y="797.5000000000001" fill="#8bcdd6ff" stroke="none"></rect><rect width="5" height="5" x="175.27777777777777" y="797.5000000000001" fill="#8bcdd6ff" stroke="none"></rect><rect width="5" height="5" x="219.72222222222223" y="797.5000000000001" fill="#8bcdd6ff" stroke="none"></rect><rect width="5" height="5" x="264.1666666666667" y="797.5000000000001" fill="#8bcdd6ff" stroke="none"></rect><rect width="5" height="5" x="308.61111111111114" y="797.5000000000001" fill="#8bcdd6ff" stroke="none"></rect><rect width="5" height="5" x="353.0555555555556" y="797.5000000000001" fill="#8bcdd6ff" stroke="none"></rect><rect width="5" height="5" x="397.50000000000006" y="797.5000000000001" fill="#8bcdd6ff" stroke="none"></rect><rect width="5" height="5" x="441.9444444444445" y="797.5000000000001" fill="#8bcdd6ff" stroke="none"></rect><rect width="5" height="5" x="486.38888888888897" y="797.5000000000001" fill="#8bcdd6ff" stroke="none"></rect><rect width="5" height="5" x="530.8333333333334" y="797.5000000000001" fill="#8bcdd6ff" stroke="none"></rect><rect width="5" height="5" x="575.2777777777778" y="797.5000000000001" fill="#8bcdd6ff" stroke="none"></rect><rect width="5" height="5" x="619.7222222222223" y="797.5000000000001" fill="#8bcdd6ff" stroke="none"></rect><rect width="5" height="5" x="664.1666666666667" y="797.5000000000001" fill="#8bcdd6ff" stroke="none"></rect><rect width="5" height="5" x="708.6111111111112" y="797.5000000000001" fill="#8bcdd6ff" stroke="none"></rect><rect width="5" height="5" x="753.0555555555557" y="797.5000000000001" fill="#8bcdd6ff" stroke="none"></rect><rect width="5" height="5" x="797.5000000000001" y="797.5000000000001" fill="#8bcdd6ff" stroke="none"></rect></g></svg>